<?xml version="1.0" encoding="UTF-8"?>
<svg version="1.1" xmlns="http://www.w3.org/2000/svg" width="180" height="180">
<path d="M0 0 C42.9 0 85.8 0 130 0 C130 42.9 130 85.8 130 130 C113.5 130 97 130 80 130 C80 146.5 80 163 80 180 C37.1 180 -5.8 180 -50 180 C-50 137.1 -50 94.2 -50 50 C-33.5 50 -17 50 0 50 C0 33.5 0 17 0 0 Z " fill="#010101" transform="translate(50,0)"/>
<path d="M0 0 C26.07 0 52.14 0 79 0 C79 8.91 79 17.82 79 27 C61.51 27 44.02 27 26 27 C26 35.25 26 43.5 26 52 C43.16 52 60.32 52 78 52 C78 60.58 78 69.16 78 78 C52.26 78 26.52 78 0 78 C0 52.26 0 26.52 0 0 Z " fill="#F2F2F2" transform="translate(77,25)"/>
<path d="M0 0 C8.58 0 17.16 0 26 0 C26 16.83 26 33.66 26 51 C42.83 51 59.66 51 77 51 C77 59.58 77 68.16 77 77 C51.59 77 26.18 77 0 77 C0 51.59 0 26.18 0 0 Z " fill="#F6F6F6" transform="translate(26,77)"/>
</svg>
