<?xml version="1.0" encoding="UTF-8"?>
<svg version="1.1" xmlns="http://www.w3.org/2000/svg" width="180" height="180">
<path d="M0 0 C42.9 0 85.8 0 130 0 C130 42.9 130 85.8 130 130 C113.5 130 97 130 80 130 C80 146.5 80 163 80 180 C37.1 180 -5.8 180 -50 180 C-50 137.1 -50 94.2 -50 50 C-33.5 50 -17 50 0 50 C0 33.5 0 17 0 0 Z " fill="#B1DAED" transform="translate(50,0)"/>
<path d="M0 0 C25.41 0 50.82 0 77 0 C77 8.91 77 17.82 77 27 C60.17 27 43.34 27 26 27 C26 35.25 26 43.5 26 52 C43.16 52 60.32 52 78 52 C78 60.58 78 69.16 78 78 C52.26 78 26.52 78 0 78 C0 52.26 0 26.52 0 0 Z " fill="#070809" transform="translate(77,25)"/>
<path d="M0 0 C8.91 0 17.82 0 27 0 C27 16.83 27 33.66 27 51 C43.83 51 60.66 51 78 51 C78 59.91 78 68.82 78 78 C67.97771835 78.02255161 57.95545343 78.04091543 47.9331522 78.05181217 C43.27988814 78.05704085 38.62664226 78.06413823 33.97338867 78.07543945 C29.48655454 78.08626886 24.99973796 78.09227695 20.51289177 78.09487724 C18.79719707 78.0967314 17.08150338 78.10035182 15.36581612 78.10573006 C12.97115087 78.11294121 10.57655904 78.11399091 8.18188477 78.11352539 C7.10726738 78.1189183 7.10726738 78.1189183 6.01094055 78.12442017 C1.11405216 78.11405216 1.11405216 78.11405216 0 77 C-0.09496708 74.59651714 -0.12558862 72.22189018 -0.11352539 69.81811523 C-0.11367142 69.06694427 -0.11381744 68.31577332 -0.1139679 67.5418396 C-0.11326863 65.04739541 -0.10547564 62.55302497 -0.09765625 60.05859375 C-0.09579212 58.33366436 -0.09436819 56.60873443 -0.09336853 54.88380432 C-0.08954297 50.33487497 -0.07971238 45.78597733 -0.06866455 41.23706055 C-0.05845124 36.59879994 -0.05387108 31.96053423 -0.04882812 27.32226562 C-0.03809013 18.21482754 -0.02049304 9.10742137 0 0 Z " fill="#000000" transform="translate(25,77)"/>
<path d="M0 0 C8.91 0 17.82 0 27 0 C27 16.83 27 33.66 27 51 C43.83 51 60.66 51 78 51 C78 59.91 78 68.82 78 78 C67.97771835 78.02255161 57.95545343 78.04091543 47.9331522 78.05181217 C43.27988814 78.05704085 38.62664226 78.06413823 33.97338867 78.07543945 C29.48655454 78.08626886 24.99973796 78.09227695 20.51289177 78.09487724 C18.79719707 78.0967314 17.08150338 78.10035182 15.36581612 78.10573006 C12.97115087 78.11294121 10.57655904 78.11399091 8.18188477 78.11352539 C7.10726738 78.1189183 7.10726738 78.1189183 6.01094055 78.12442017 C1.11405216 78.11405216 1.11405216 78.11405216 0 77 C-0.09496708 74.59651714 -0.12558862 72.22189018 -0.11352539 69.81811523 C-0.11367142 69.06694427 -0.11381744 68.31577332 -0.1139679 67.5418396 C-0.11326863 65.04739541 -0.10547564 62.55302497 -0.09765625 60.05859375 C-0.09579212 58.33366436 -0.09436819 56.60873443 -0.09336853 54.88380432 C-0.08954297 50.33487497 -0.07971238 45.78597733 -0.06866455 41.23706055 C-0.05845124 36.59879994 -0.05387108 31.96053423 -0.04882812 27.32226562 C-0.03809013 18.21482754 -0.02049304 9.10742137 0 0 Z M2 1 C2 25.75 2 50.5 2 76 C26.75 76 51.5 76 77 76 C77 68.08 77 60.16 77 52 C52.25 51.505 52.25 51.505 27 51 C26.67 34.5 26.34 18 26 1 C18.08 1 10.16 1 2 1 Z " fill="#495A62" transform="translate(25,77)"/>
</svg>
